<?xml version="1.0" encoding="utf-8"?>
<!-- Generator: Adobe Illustrator 23.0.1, SVG Export Plug-In . SVG Version: 6.00 Build 0)  -->
<svg version="1.1" id="Layer_1" xmlns="http://www.w3.org/2000/svg" xmlns:xlink="http://www.w3.org/1999/xlink" x="0px" y="0px"
	 viewBox="0 0 2000 1000" style="enable-background:new 0 0 2000 1000;" xml:space="preserve">
<style type="text/css">
	.st0{fill:#010101;}
</style>
<g id="PcJY5o.tif_1_">
	<g>
		<path class="st0" d="M872.49,281.2c0,1.69,0,2.93,0,4.17c0,68.17,0.12,136.33-0.08,204.5c-0.05,18.19,0.88,36.18,7.54,53.28
			c17.63,45.28,50.15,73.51,98.06,82.33c37.89,6.97,72.46-2.3,102.45-26.52c25.88-20.91,41.95-48.14,45.8-81.28
			c6.23-53.66-13.64-96.24-58.74-125.8c-30.37-19.91-64.13-24.12-99.41-15.42c-11.87,2.93-23,7.65-33.46,13.97
			c-1.15,0.7-2.33,1.36-3.85,2.25c0-45.67,0-90.93,0-136.2c97.65-30.32,235.56,5.36,297.46,133.9
			c61.86,128.45,6.9,277.92-119.1,338.26c-125.31,60.01-276.27,8.8-337.47-118.81C711.77,484.92,762.84,344.48,872.49,281.2z"/>
		<path class="st0" d="M922.88,499.85c-0.06-42.31,34.55-76.95,77.06-77.14c42.44-0.19,77.29,34.59,77.35,77.16
			c0.06,42.49-34.75,77.35-77.21,77.34C957.59,577.2,922.94,542.47,922.88,499.85z"/>
	</g>
</g>
</svg>
