<?xml version="1.0" encoding="utf-8"?>
<!-- Generator: Adobe Illustrator 23.0.1, SVG Export Plug-In . SVG Version: 6.00 Build 0)  -->
<svg version="1.1" id="Layer_1" xmlns="http://www.w3.org/2000/svg" xmlns:xlink="http://www.w3.org/1999/xlink" x="0px" y="0px"
	 viewBox="0 0 2000 1000" style="enable-background:new 0 0 2000 1000;" xml:space="preserve">
<style type="text/css">
	.st0{fill:#010101;}
</style>
<path class="st0" d="M679.31,535.47c3.56-6.04,55.22-81.99,59.24-87.61c3.6,1.67,7.19,3.41,10.72,5.28
	c-8.43,11.44-20.54,30.6-32.76,48.46c-13.67,19.97-23.58,34.05-31.37,40.79c-3.02,2.63-5.19,3.95-7.18,3.95
	c-1.67,0-2.33-1-2.33-2.19C675.63,542.73,676.31,540.57,679.31,535.47 M897.37,535.59c3.35,0,8.78-2.39,16.62-11.16
	c7.41-8.17,15.83-19.03,22.19-29.89c0.56-0.95,0.85-2.22,0.85-3.17c0-3.33-2.21-5.24-5.94-5.24c-6.54,0-13.05,4.48-21.97,15.7
	c-7.68,9.65-15.52,24.03-15.52,30.28C893.6,533.74,894.04,535.59,897.37,535.59 M1260.06,487.91c0-1.71-0.76-2.84-2.65-2.84
	c-6.8,0-16.3,10.34-26.09,28.2C1244.45,511.11,1260.06,497.61,1260.06,487.91 M1109.26,487.9c0-1.7-0.95-2.83-2.8-2.83
	c-7.89,0-18.28,14.03-26.06,28.28C1093.54,511.22,1109.26,498.39,1109.26,487.9 M742.7,500.37v4.52
	c-21.38,0.35-34.64,14.74-34.64,29.62c0,8.02,4.32,13.58,15.86,13.58c26.81,0,45.23-28.74,45.23-47.59
	c0-8.54-3.08-16.16-16.61-16.16h-6.41c-2.19,0-3.93,0.15-4.95,0.37l3.98-5.93c11.58,0,20.71-0.24,27.27-3.32
	c14.59-6.92,22.23-23.2,22.23-31.71c0-5.82-2.29-10.49-9.76-10.49c-11.3,0-21.42,10.88-27.92,19.21c5.65,3.38,9.59,6.32,12.41,8.52
	l-2.68,3.48c-3.59-2.83-7.81-5.71-12.5-8.43c-7.09,9.47-23.24,34.45-34.38,50.79C727.16,501.95,736.61,500.37,742.7,500.37
	 M730.25,432.43l19.96-0.86c-1.84,2.54-5.16,7.09-9,12.47c3.62,1.71,7.28,3.56,10.82,5.46c12.31-15.64,23.79-22.76,38.74-22.76
	c16.14,0,22.19,9.22,22.19,18.63c0,8.53-5,18.34-10.89,24.23c-7.96,7.98-18.9,11.7-27.77,13.64c4.89,2.69,13.85,6.6,13.85,20.8
	c0,11.93-6.48,22.86-14.1,31.37c14.64-8.44,35.93-28.63,45.25-40.05c2.15-2.66,6.04-8.03,8.03-10.84l17.41-1.08
	c0,0-22.21,33.58-27.01,41.83c-2.69,4.66-3.41,6.73-3.41,8.31c0,1.07,0.66,2.16,2.65,2.16c6.74,0,19.44-11.38,28.47-23.11
	c4.13-5.37,19.06-28.02,19.06-28.02l17.68-1.09c-14.32,21.99-19.01,29.39-19.01,29.39c-4.63,7.44-8.51,14.1-9.54,17.6
	c-0.31,1.07-0.47,1.97-0.47,2.72c0,1.71,0.85,2.55,2.53,2.55c10.28,0,28.68-24.28,34.54-31.67c10.76-13.58,23.81-23.02,37.91-23.02
	c6.4,0,10.54,2.45,12.52,6.63c5.57-9.16,16.08-26.51,23.15-38.18l-219.12-84.12l-8.42-3.23l-4.91,7.56l-38.82,59.8
	c13.42,1.38,24.64,4.68,33.76,8.11C727.75,435.7,728.96,434.07,730.25,432.43 M632.78,465.1c3.35,9.73,14.38,15.94,33.01,15.94
	c15.69,0,27.98-4.67,36.85-10.16c-13.87,19.84-32.24,47.13-38.92,58.14c-3.29,5.42-5.61,9.8-5.61,13.94
	c0,6.94,6.89,10.82,14.78,10.82c9.5,0,17.18-6.81,26.87-19.1l3.41-4.55c0,0-0.49,2.45-0.49,4.67c0,10.3,6.28,19.01,25.97,19.01
	c26.87,0,51.74-14.1,76.09-37.28l5.14-4.89c-7.76,10.62-10.88,18-10.88,22.51c0,5.66,3.95,9.05,10.29,9.05
	c9.74,0,20.27-7.66,28.65-16.28l3.8-3.95c-2.52,4.86-3.8,8.67-3.8,11.83c0,4.61,2.8,8.46,9.62,8.46c11.97,0,23.4-10.76,32.96-21.02
	c-1.4,3.31-2.72,7.46-2.72,10.61c0,6.44,4.29,10.25,11.23,10.25c8.99,0,18-4.87,28.39-16.56c1.33-1.49,3.38-3.8,5.22-6.03
	c-1.85,3.76-4.05,8.51-4.05,13.31c0,5.74,3.49,9.23,10.24,9.23c14.59,0,27.73-15.65,35.63-24.34c-3.83,6.36-6.23,10.85-6.23,15.26
	c0,6.38,4.62,9.09,10.26,9.09c12.86,0,24.68-11.5,33.7-22.82c-2.21,4.33-4.52,8.74-4.52,13.34c0,6.1,4.17,9.39,11.15,9.39
	c6.28,0,14.29-2.44,23.22-10.38c8.25-7.35,14.48-15.47,19.5-23.19c2.32,3.91,6.03,6.23,10.3,7.56c-1.83,4.09-2.97,8.56-2.97,12.3
	c0,8.27,5.16,13.74,16.29,13.74c18.83,0,34.47-16.16,44.19-26.54c-4.79,8.18-6.41,13.11-6.41,17.1c0,5.98,3.85,9.5,10.91,9.5
	c12.27,0,25.29-12.59,36.57-23.54c3.96-3.84,13.04-13.03,26.01-26.86c-0.89,4.14-2.22,10.8-2.81,14.1
	c-4.47,24.86-11.27,32.58-19.61,32.58c-7.38,0-5.54-8-11.02-8c-2.14,0-3.76,1.79-3.76,4.06c0,4.25,5.01,7.99,13.79,7.99
	c16.7,0,28.59-10.31,37.99-18.75c4.67-4.21,9.39-8.52,14.56-13.12c-3.19,5.58-5.89,11.72-5.89,18.45c0,7.45,4.88,13.1,15.49,13.1
	c20.38,0,36.03-18.85,44.53-29.77c11.58-14.9,20.53-26.08,25.83-26.08c1.21,0,1.92,0.63,1.92,1.86c0,2.32-1.65,5.08-4.72,10.46
	c-9.85,17.22-24.09,38.35-26.33,42.14l16.74-0.63c7.81-12.66,29.07-40.44,39.66-49.51c-2.69,3.82-4.28,8.22-4.28,11.77
	c0,6.25,4.02,10.09,12.06,10.09c4.21,0,7.5-0.97,10.66-2.59l-1.35-3.25c-2.09,1.13-3.87,1.72-5.99,1.72c-3.74,0-4.84-2.55-4.84-5.42
	c0-6.61,6.14-14.91,12.52-16.91c-0.05-3.06-2.94-5.28-7.53-5.28c-6.36,0-14.99,4.97-32.9,27.88c5.33-9.78,8.06-14.45,8.06-20.05
	c0-4.39-2.95-7.63-9.12-7.63c-11.5,0-18.81,10.29-33.98,29.54c-9.54,12.12-22.11,24.92-34.37,24.92c-4.3,0-6.46-2.21-6.46-5.91
	c-0.01-4.57,2.21-10.08,3.85-13.09c15.81-1.69,38.41-14.5,38.41-28.32c0-5.83-3.92-8.21-10.64-8.21c-8.07,0-18.16,3.85-28.78,13.78
	c-10.34,9.66-27.64,25.97-36.28,32.91c4.11-6.15,5.21-12.1,5.21-19.14c0-6.9-0.73-12.18-0.73-18.91c0-0.81,0.06-2.19,0.18-2.91
	c3.41-0.66,6.3-3.08,6.3-6.74c0-2.74-1.75-4.85-5.18-4.85c-4.2,0-7.84,3.13-9.58,10.15c-5.13,5.66-13.42,14.3-20.84,21.89
	c-17.77,18.13-29.94,29.06-36.59,29.06c-1.75,0-2.82-0.84-2.82-2.8c0-3.64,5.21-12.79,9.74-19.99c0,0,4.57-7.45,18.65-29.72
	l-16.68,0.97c-1.27,2.09-5.82,8.35-6.73,9.51c-11.7,15.38-33.29,42.3-51.04,42.3c-5.46,0-7.21-2.77-7.21-6.58
	c0-4.1,1.92-8.62,3.69-12.35c22.18-3.08,38.48-17.87,38.48-28.39c0-5.54-3.33-8.21-10.51-8.21c-20.05,0-36.05,19.91-42.54,32.44
	c-4.28-1.21-7.85-3.74-9.61-7.88c6.16-10.33,9.66-19.14,9.66-22.28c0-1.66-1.96-2.93-4.56-2.93c-3.34,0-5.37,1.67-6.62,3.49
	c-2.56,3.75-4.29,10.82-4.05,18.72c-4.03,11.65-20.99,33.58-33.1,33.58c-2.31,0-3.18-1.1-3.18-2.9c0-3.66,4.29-11.99,12.18-24.81
	c1.02-1.67,10.44-17.21,15.11-24.7l-16.58,0.9c-3.94,6.05-7.25,11.31-11.42,17.2c-17.51,24.73-29.42,34.33-35.79,34.33
	c-1.83,0-2.76-0.86-2.76-2.47c0-1.58,0.89-3.64,2.58-6.8c5.38-10.05,18.29-29.1,27.66-43.14l-16.79,0.84
	c-1.94,2.88-7.46,10.59-9.59,13.28c-23.52,29.62-34.82,38.14-40.57,38.14c-2.06,0-2.77-1.21-2.77-2.94
	c0-4.82,5.24-13.89,15.68-31.49l40.45-66.32l4.33,5.32c0,0-1.1,1.82-2.86,4.74l445.21-86.56l-96.37,148.97l4.36,2.79l2.39,5.18
	c-2.93,1.65-7.78,4.18-13.83,4.18c-0.26,0-0.51-0.01-0.77-0.02l-78.24,120.95l-342.05-67.82l-348.06,55.2l91.69-141.25
	c-11.56-2.34-21.38-8.69-22.64-21.7L632.78,465.1z M1173.71,456.46c0-4.68-3.16-7.08-6.84-7.08c-6.43,0-10.37,5.98-10.37,11.05
	c0,4,2.4,6.83,7.11,6.83C1169.28,467.25,1173.71,461.91,1173.71,456.46 M643.78,469.34L643.78,469.34
	c-1.56-4.14-1.16-11.57,2.72-16.98c5.66-7.88,17.99-12.63,35-12.63c1.47,0,2.93,0.04,4.38,0.1l-23.66,36.44
	c1.4,0.1,2.85,0.15,4.36,0.15c25.78-0.08,40.6-13.6,46.05-19.76c0,0,10.73-14.87,10.89-15.1c-10.19-3.9-25.24-8.05-43.3-8.05
	c-25.29,0-40.72,10.27-40.76,24.84c-0.01,4.37,1.47,8.09,4.31,10.99L643.78,469.34z M1283.43,629.41c-1.36-1.38-2.99-2.06-4.91-2.06
	c-1.94,0-3.6,0.68-4.97,2.06s-2.05,3.02-2.05,4.95s0.68,3.58,2.06,4.95c1.37,1.38,3.02,2.07,4.95,2.07c1.91,0,3.55-0.69,4.92-2.07
	c1.36-1.38,2.05-3.02,2.05-4.95C1285.46,632.44,1284.79,630.79,1283.43,629.41 M1282.53,638.53c-1.13,1.15-2.47,1.72-4.03,1.72
	c-1.58,0-2.93-0.57-4.06-1.72c-1.13-1.15-1.69-2.54-1.69-4.17c0-1.62,0.56-3,1.69-4.16c1.12-1.16,2.48-1.73,4.08-1.73
	c1.56,0,2.91,0.58,4.02,1.74c1.12,1.15,1.68,2.54,1.68,4.15C1284.22,635.99,1283.65,637.38,1282.53,638.53 M1280.51,634.86
	c1-0.41,1.5-1.13,1.5-2.13c0-0.7-0.25-1.28-0.75-1.72c-0.5-0.45-1.27-0.67-2.29-0.67h-3.74v8.07h1.72v-3.26h1.93l1.31,3.26h1.81
	L1280.51,634.86z M1276.94,631.6h1.9c0.92,0,1.38,0.37,1.38,1.1c0,0.77-0.5,1.15-1.51,1.15h-1.78V631.6z"/>
</svg>
