<?xml version="1.0" encoding="utf-8"?>
<!-- Generator: Adobe Illustrator 23.0.1, SVG Export Plug-In . SVG Version: 6.00 Build 0)  -->
<svg version="1.1" id="Layer_1" xmlns="http://www.w3.org/2000/svg" xmlns:xlink="http://www.w3.org/1999/xlink" x="0px" y="0px"
	 viewBox="0 0 2000 1000" style="enable-background:new 0 0 2000 1000;" xml:space="preserve">
<g id="Le9Vbu.tif_1_">
	<g>
		<path d="M1127.75,628.27c-2.78-0.35-5.57-0.61-8.33-1.05c-15.45-2.49-28.6-8.98-37.86-22.06c-5.58-7.88-8.6-16.8-10.12-26.25
			c-2.02-12.66-1.41-25.16,3.92-36.96c9.51-21.07,25.59-34.01,48.61-37.71c12.81-2.06,25.54-1.49,37.93,2.63
			c19.65,6.54,31.57,20.31,36.77,40.12c3,11.43,3.75,22.99,0.9,34.57c-3.83,15.58-13.09,27.21-26.54,35.63
			c-10.58,6.62-22.22,9.95-34.63,10.75c-0.79,0.05-1.58,0.21-2.37,0.33C1133.26,628.27,1130.51,628.27,1127.75,628.27z
			 M1173.28,569.43c-0.08-8.95-0.95-18.06-3.47-26.97c-2.57-9.08-6.52-17.41-13.64-23.89c-11.55-10.53-29.75-11.73-41.78-2.74
			c-7.15,5.34-11.36,12.74-13.77,21.11c-5.38,18.62-4.07,37,2.83,55c3.2,8.36,7.92,15.79,14.94,21.55
			c6.72,5.51,14.35,8.09,23.06,6.66c12.79-2.1,21.47-9.49,26.62-21.2C1172.16,589.64,1173.25,579.76,1173.28,569.43z"/>
		<path d="M767,625.76c-28.36,0-56.72,0-85.07-0.01c-1.15,0-2.35,0.06-3.41-0.28c-0.78-0.25-1.68-1-1.94-1.74
			c-0.44-1.23,0.45-2.09,1.63-2.38c1.27-0.31,2.58-0.54,3.89-0.61c9.28-0.5,18.57-0.9,27.85-1.45c2.39-0.14,4.79-0.56,7.13-1.1
			c6.43-1.48,9.99-5.75,10.71-12.87c0.32-3.19,0.48-6.41,0.48-9.62c0.03-66.82,0.02-133.64,0.01-200.46c0-1.55-0.01-3.12-0.27-4.63
			c-0.73-4.39-3.21-7.51-7.19-9.47c-3.88-1.92-8.05-2.62-12.3-2.97c-6.46-0.53-12.93-0.91-19.4-1.4c-0.96-0.07-1.92-0.34-2.85-0.58
			c-1.08-0.28-1.83-1.07-1.46-2.14c0.26-0.79,0.99-1.61,1.72-1.99c0.76-0.39,1.79-0.34,2.7-0.34c43.92,0,87.83-0.09,131.74,0.08
			c20.76,0.08,41.18,2.8,60.95,9.44c18.73,6.29,35.43,15.92,49.18,30.28c15.03,15.7,24.27,34.48,29.2,55.5
			c3.68,15.71,5.03,31.63,3.4,47.69c-3.11,30.43-14.34,57.26-36.31,79.02c-15.63,15.49-34.56,24.93-56.05,29.34
			c-9.59,1.97-19.31,2.69-29.08,2.69C817.17,625.76,792.08,625.76,767,625.76z M771.23,499.66c0,37.26,0,74.51,0,111.77
			c0,5.84,0.95,6.81,6.79,6.82c7.06,0.01,14.12,0.05,21.18-0.03c15.78-0.19,31.57-0.36,47.19-3.02
			c13.38-2.28,25.66-6.99,35.71-16.45c9.48-8.93,17.28-19.16,23.07-30.85c6.42-12.96,10.32-26.7,12.64-40.92
			c2.47-15.18,3.52-30.4,1.28-45.75c-2.6-17.88-7.87-34.83-16.59-50.71c-9.43-17.15-22.52-30.43-40.41-38.74
			c-13.86-6.44-28.51-9.93-43.68-10.72c-13.57-0.71-27.2-0.48-40.79-0.64c-0.8-0.01-1.61,0.07-2.4,0.21
			c-2.27,0.39-3.44,1.55-3.75,3.85c-0.18,1.36-0.24,2.74-0.24,4.12C771.23,425.6,771.23,462.63,771.23,499.66z"/>
		<path d="M1270.63,539.58c0.57-0.92,0.88-1.42,1.2-1.93c4.41-7.06,8.94-14.03,14.44-20.32c3.47-3.96,7.54-7.09,12.39-9.06
			c7.36-3,14.24-1.86,20.21,3.35c4.72,4.11,6,12,3.19,17.6c-1.15,2.29-2.86,4-5.21,5.05c-3.18,1.42-6.21,1.17-8.78-1.25
			c-1.45-1.36-2.59-3.05-3.89-4.57c-1.08-1.26-2.04-2.66-3.3-3.7c-1.98-1.63-4.42-2.29-6.75-0.96
			c-10.88,6.18-19.41,14.46-22.78,26.95c-0.77,2.84-0.94,5.9-0.94,8.86c-0.01,16.82,0.07,33.63,0.21,50.46
			c0.06,7.25,3.34,10.64,10.61,11.34c3.65,0.35,7.31,0.65,10.96,1.01c0.55,0.05,1.21,0.19,1.59,0.54c0.35,0.33,0.58,1.01,0.52,1.49
			c-0.05,0.36-0.59,0.81-1.01,0.94c-0.58,0.18-1.25,0.11-1.88,0.12c-22.5,0.01-45,0.01-67.51-0.01c-0.74,0-1.55,0.04-2.2-0.24
			c-0.52-0.22-1.19-0.92-1.18-1.38c0.01-0.47,0.72-1.22,1.23-1.33c1.45-0.31,2.96-0.36,4.44-0.49c2.68-0.22,5.39-0.27,8.05-0.66
			c6.66-0.97,9.91-4.37,10.21-11.11c0.28-6.19,0.13-12.39,0.11-18.59c-0.06-18.48-0.14-36.96-0.22-55.45
			c-0.01-1.38-0.06-2.76-0.18-4.13c-0.32-3.66-2.45-5.86-6.13-5.89c-2.02-0.02-4.09,0.44-6.07,0.94c-2.61,0.65-5.15,1.56-7.73,2.32
			c-0.49,0.14-1.07,0.3-1.52,0.16c-0.59-0.19-1.45-0.59-1.55-1.05c-0.12-0.57,0.21-1.56,0.69-1.87c1.13-0.75,2.42-1.29,3.7-1.77
			c8.83-3.36,17.74-6.53,26.49-10.07c3.92-1.58,7.51-3.94,11.31-5.82c5.13-2.55,7.3-1,7.2,4.79c-0.14,8.15-0.09,16.3-0.11,24.45
			C1270.48,538.55,1270.54,538.82,1270.63,539.58z"/>
		<path d="M1031.06,561.94c0,15.45-0.01,30.89,0.01,46.33c0,1.49,0.06,2.99,0.21,4.47c0.37,3.79,2.26,6.63,5.98,7.58
			c3.52,0.9,7.19,1.27,10.81,1.77c1.64,0.22,3.32,0.17,4.98,0.31c1.02,0.09,1.75,0.57,1.68,1.76c-0.07,1.19-0.93,1.3-1.83,1.33
			c-0.4,0.02-0.8,0.01-1.21,0.01c-22.04,0-44.09,0-66.14,0c-0.57,0-1.25,0.17-1.7-0.08c-0.71-0.39-1.25-1.07-1.87-1.62
			c0.56-0.55,1.03-1.37,1.7-1.57c0.95-0.3,2.04-0.15,3.07-0.21c2.97-0.18,5.98-0.13,8.91-0.61c6.38-1.04,8.83-3.84,9.44-10.35
			c0.16-1.65,0.24-3.33,0.24-4.99c0.02-23.83,0.01-47.65,0.01-71.48c0-0.69,0.01-1.38-0.06-2.06c-0.46-4.74-3.98-7.44-8.65-6.39
			c-3.74,0.84-7.4,2.02-11.11,3.02c-0.65,0.18-1.4,0.34-2.03,0.18c-0.63-0.16-1.5-0.64-1.63-1.15c-0.13-0.51,0.34-1.52,0.84-1.79
			c1.34-0.74,2.8-1.34,4.27-1.75c11.27-3.07,22.15-7.11,32.26-13.06c2.07-1.22,4.25-2.28,6.48-3.17c3.4-1.34,5.1-0.22,5.25,3.4
			c0.13,3.15,0.1,6.31,0.1,9.47C1031.06,534.84,1031.06,548.39,1031.06,561.94z"/>
		<path d="M1033.11,447.24c-0.01,9.17-7.49,16.65-16.64,16.65c-9.15-0.01-16.58-7.49-16.57-16.69c0.01-9.21,7.44-16.65,16.62-16.62
			C1025.7,430.58,1033.12,438.05,1033.11,447.24z"/>
	</g>
</g>
</svg>
