<?xml version="1.0" encoding="utf-8"?>
<!-- Generator: Adobe Illustrator 23.0.1, SVG Export Plug-In . SVG Version: 6.00 Build 0)  -->
<svg version="1.1" id="Layer_1" xmlns="http://www.w3.org/2000/svg" xmlns:xlink="http://www.w3.org/1999/xlink" x="0px" y="0px"
	 viewBox="0 0 2000 1000" style="enable-background:new 0 0 2000 1000;" xml:space="preserve">
<g>
	<path d="M764.72,549.49c0.77,0,1.35,0,1.94,0c10.48,0,20.95,0.02,31.43-0.03c1.26-0.01,1.92,0.4,2.58,1.47
		c14.56,23.79,29.17,47.54,43.77,71.31c0.2,0.33,0.42,0.63,0.77,1.14c0.08-0.44,0.18-0.71,0.18-0.98c0-16.37,0.02-32.73-0.06-49.1
		c-0.01-2.27-0.45-4.55-0.9-6.77c-0.9-4.38-3.78-6.83-8.05-7.78c-0.37-0.08-0.74-0.16-1.11-0.26c-0.16-0.04-0.3-0.12-0.52-0.2
		c0-2.85,0-5.72,0-8.68c11.36,0,22.62,0,33.99,0c0,2.92,0,5.78,0,8.7c-1.3,0.1-2.55,0.1-3.78,0.29c-5.57,0.87-7.76,2.93-8.74,8.52
		c-0.43,2.46-0.69,4.98-0.69,7.47c-0.04,31.59-0.03,63.17-0.03,94.76c0,0.7,0,1.39,0,2.24c-2.72,0-5.28,0.06-7.83-0.06
		c-0.47-0.02-1.01-0.71-1.32-1.21c-6.75-11.07-13.48-22.15-20.21-33.23c-11.45-18.86-22.89-37.71-34.34-56.58
		c-0.16-0.27-0.34-0.52-0.8-1.21c0,0.96,0,1.46,0,1.97c0,20.73-0.02,41.46,0.03,62.2c0.01,2.49,0.26,5.02,0.7,7.47
		c0.99,5.55,4.32,9.04,9.87,10.22c1.04,0.22,1.32,0.63,1.3,1.61c-0.05,2.45-0.01,4.91-0.01,7.48c-10.91,0-21.74,0-32.78,0
		c0-2.72-0.02-5.49,0.04-8.25c0.01-0.3,0.45-0.73,0.78-0.87c6.12-2.53,8.63-7.56,9.26-13.73c0.41-4.06,0.67-8.15,0.68-12.23
		c0.07-20.79-0.04-41.57,0.11-62.36c0.02-3.38-1.32-5.73-3.55-7.84c-3.08-2.89-6.8-4.73-10.8-5.89c-1.6-0.47-1.99-1.24-1.91-2.75
		C764.81,554.12,764.72,551.9,764.72,549.49z"/>
	<path d="M911.89,558.42c0,14.7,0,29.24,0,43.97c7.48-0.1,14.65-0.9,20.7-5.75c2.48-1.98,3.61-4.06,4.97-8.67c1.33,0,2.74,0,4.14,0
		c1.41,0,2.81,0,4.34,0c0,13.17,0,26.18,0,39.3c-2.71,0-5.41,0-8.25,0c-0.67-3.33-1.97-6.4-4.43-8.86
		c-3.71-3.71-8.37-5.43-13.38-6.29c-2.61-0.45-5.28-0.58-8.06-0.88c-0.04,0.73-0.1,1.21-0.1,1.67c-0.01,10.91-0.07,21.82,0.05,32.74
		c0.03,2.35,0.5,4.78,1.24,7.03c2.12,6.49,7.67,9.18,13.93,8.68c7.87-0.63,13.41-5.15,17.61-11.4c2.13-3.18,3.72-6.73,5.65-10.26
		c2.29,0,4.89,0,7.74,0c-1.01,10.24-2.01,20.39-3.01,30.58c-26.37,0-52.59,0-78.96,0c0-2.75-0.04-5.41,0.04-8.07
		c0.01-0.32,0.64-0.84,1.04-0.9c7.45-1,8.34-5.45,8.81-10.42c0.07-0.76,0.04-1.53,0.04-2.29c0-26.08,0.01-52.16-0.01-78.25
		c0-1.35-0.12-2.72-0.33-4.06c-0.66-4.23-3.42-6.93-7.63-7.59c-0.81-0.13-1.61-0.26-2.52-0.4c0-2.87,0-5.72,0-8.71
		c26.79,0,53.55,0,80.41,0c0,8.5,0,16.99,0,25.72c-2.35,0-4.74,0.07-7.11-0.06c-0.44-0.02-0.93-0.81-1.24-1.34
		c-4.3-7.34-10.31-12.44-18.73-14.44C923.29,558.17,917.68,558.4,911.89,558.42z"/>
	<path d="M565.4,585.14c-3.4,0-6.8,0-10.19,0c-0.75-3.07-1.31-6.11-2.24-9.03c-2.44-7.71-6.32-14.46-13.64-18.6
		c-5.52-3.12-12.71-1.98-16.33,2.53c-2.07,2.57-2.48,5.67-2.31,8.79c0.3,5.4,3.14,9.66,6.82,13.35c7.82,7.83,15.92,15.41,23.56,23.4
		c4.31,4.51,8.28,9.42,11.82,14.55c4.46,6.49,5.69,13.93,4.9,21.78c-0.71,7.12-2.92,13.6-7.68,18.99
		c-5.4,6.11-12.24,9.46-20.37,10.5c-7.82,1-15.13-0.44-22.16-3.72c-4.27-1.99-7.31-1.52-10.06,2.12c-0.22,0.29-0.7,0.53-1.07,0.54
		c-1.95,0.05-3.92,0.02-6,0.02c0-12.34,0-24.57,0-36.89c3.13,0,6.22,0,9.35,0c0.97,3.46,1.79,6.99,2.94,10.41
		c1.74,5.17,3.89,10.19,8.02,14c4.35,4.01,9.37,5.85,15.27,4.12c4.98-1.45,7.5-5.04,8.48-9.96c1.29-6.48-1.37-11.79-5.29-16.47
		c-4.23-5.05-8.85-9.77-13.41-14.53c-5.52-5.74-11.29-11.25-16.69-17.08c-5.14-5.55-9.45-11.75-11.19-19.25
		c-4.03-17.4,4.6-33.11,23.11-37.39c10.88-2.52,21.34-0.56,31.48,3.73c0.5,0.21,1.02,0.35,1.53,0.54c1.56,0.6,2.76,0.07,3.29-1.41
		c0.4-1.1,1.05-1.19,1.99-1.17c1.69,0.04,3.38,0.03,5.07,0.01c0.75-0.01,1.26,0.1,1.25,1.04c-0.02,11.51-0.03,23.02-0.04,34.53
		C565.6,584.76,565.49,584.91,565.4,585.14z"/>
	<path d="M1150.81,585.35c-3.05,0-6.15-0.02-9.25,0.01c-1.16,0.01-1.09-0.83-1.21-1.55c-1.2-7.06-3.43-13.73-7.87-19.46
		c-3-3.88-6.63-6.98-11.56-8.03c-2.87-0.61-5.77-0.36-8.47,0.91c-3.99,1.87-5.84,5.15-6.2,9.45c-0.54,6.5,2.52,11.48,6.82,15.81
		c7.11,7.16,14.53,14,21.53,21.27c4.56,4.74,8.94,9.74,12.79,15.06c9.77,13.55,7.73,34.13-4.19,44.83
		c-5.26,4.72-11.48,7.27-18.55,8.08c-7.33,0.84-14.18-0.58-20.83-3.5c-0.65-0.28-1.3-0.56-1.95-0.82c-3.34-1.35-6.08-0.72-8.31,2.08
		c-0.7,0.87-1.41,1.19-2.49,1.15c-1.62-0.07-3.24-0.02-4.95-0.02c0-12.34,0-24.49,0-36.76c3.06,0,6.13,0,9.27,0
		c0.8,3,1.48,6.08,2.44,9.06c1.69,5.26,3.77,10.34,7.63,14.47c4.67,4.99,11.26,6.83,16.91,4.74c5.45-2.02,8.72-7.97,8-14.3
		c-0.54-4.75-2.69-8.77-5.72-12.25c-4.46-5.14-9.19-10.05-13.9-14.98c-6.02-6.32-12.32-12.36-18.11-18.88
		c-4.81-5.41-8.48-11.65-9.65-18.99c-2.68-16.8,6.21-31.01,23.49-35.06c10.61-2.49,20.87-0.73,30.81,3.42
		c0.76,0.31,1.51,0.63,2.29,0.86c1.5,0.44,2.77,0.1,3.36-1.44c0.39-1.02,1.02-1.23,2.01-1.18c1.64,0.07,3.27,0.04,4.91,0.01
		c0.78-0.01,1.21,0.19,1.21,1.09c-0.01,11.51,0,23.02,0.01,34.53C1151.04,584.99,1150.99,585.04,1150.81,585.35z"/>
	<path d="M643.3,661.58c0,2.89,0,5.72,0,8.67c-15.32,0-30.62,0-46.05,0c0-2.81,0-5.67,0-8.66c0.4-0.09,0.85-0.24,1.32-0.3
		c5.52-0.66,7.74-3,8.12-8.57c0.04-0.65,0.03-1.31,0.03-1.96c0-30.17,0-60.33,0-90.5c0-0.54,0-1.08,0-1.8
		c-3.58-0.13-7.01,0.27-10.38,1.1c-8.26,2.02-13.78,6.9-15.87,15.35c-0.1,0.41-0.59,1.02-0.92,1.04c-2.38,0.09-4.77,0.04-7.24,0.04
		c0-8.9,0-17.6,0-26.4c31.54,0,62.99,0,94.56,0c0,8.75,0,17.49,0,26.41c-2.63,0-5.18,0.04-7.73-0.04c-0.35-0.01-0.87-0.6-0.97-1
		c-2.38-10.06-10.24-15.23-20.11-16.24c-1.34-0.14-2.69-0.24-4.3-0.38c0,0.76,0,1.34,0,1.91c0,30.38,0,60.77,0,91.16
		c0,0.27-0.01,0.55,0,0.82c0.17,6.28,2.01,8.31,8.25,9.11C642.44,661.37,642.85,661.49,643.3,661.58z"/>
	<path d="M1158.73,670.24c0-3.01,0-5.89,0-8.86c0.42-0.06,0.79-0.1,1.16-0.15c3.95-0.53,6.15-2.71,6.63-6.68
		c0.19-1.62,0.33-3.26,0.34-4.89c0.01-26.89,0.01-53.78-0.02-80.67c0-1.3-0.13-2.62-0.38-3.9c-0.81-4.23-2.65-5.83-7.79-6.81
		c0-1.42,0-2.89,0-4.35c0-1.47,0-2.92,0-4.49c13.9,0,27.67,0,41.55,0c0,2.94,0,5.81,0,8.79c-0.64,0.14-1.32,0.3-1.99,0.43
		c-4.43,0.86-6.65,3.19-7.17,7.67c-0.2,1.72-0.33,3.47-0.33,5.21c-0.01,26.4-0.02,52.8,0.05,79.2c0.01,2.32,0.36,4.67,0.9,6.93
		c0.61,2.56,2.14,3.58,4.75,3.62c5.85,0.09,10.63-2.38,14.8-6.26c3.98-3.7,6.83-8.2,8.91-13.17c0.68-1.63,1.52-2.23,3.24-2.06
		c1.61,0.16,3.24,0.04,5.05,0.04c-1.21,10.23-2.4,20.27-3.6,30.4C1202.76,670.24,1180.81,670.24,1158.73,670.24z"/>
	<path d="M1078.28,549.61c0,2.97,0,5.78,0,8.69c-0.43,0.04-0.79,0.08-1.16,0.12c-5.51,0.55-8.22,3.43-8.51,9.08
		c-0.06,1.09-0.08,2.18-0.08,3.27c-0.01,25.8-0.01,51.61,0.01,77.41c0,2.07,0.12,4.15,0.41,6.19c0.61,4.31,3.02,6.47,7.41,6.89
		c0.59,0.06,1.18,0.16,1.98,0.28c0,1.5,0,2.95,0,4.4c0,1.41,0,2.82,0,4.33c-14.47,0-28.78,0-43.35,0c0-2.68-0.04-5.38,0.05-8.08
		c0.01-0.3,0.69-0.8,1.1-0.84c6.03-0.66,7.8-3.92,7.91-9.48c0.16-8.73,0.04-17.46,0.04-26.19c0-18.82,0.01-37.64-0.01-56.46
		c0-1.35-0.12-2.72-0.36-4.06c-0.69-3.75-2.81-5.79-6.58-6.5c-0.64-0.12-1.28-0.23-2.14-0.38c0-1.41,0-2.87,0-4.32
		c0-1.41,0-2.81,0-4.34C1049.48,549.61,1063.79,549.61,1078.28,549.61z"/>
	<path d="M766.14,599.91c-0.76-9.21-2.98-18-7.25-26.26c-9.82-18.97-31.09-28.3-47.97-25.68c-16.53,2.55-28.98,11.1-36.82,25.99
		c-5.29,10.05-7.16,20.94-7.46,32.16c-0.31,11.58,0.74,22.99,4.92,33.89c6.24,16.32,17.55,27.13,34.69,31.46
		c1.83,0.46,3.69,0.79,5.54,1.18c3.16,0,6.33,0,9.49,0c0.41-0.11,0.81-0.27,1.22-0.33c11.04-1.65,20.53-6.33,28.24-14.47
		c7.34-7.74,11.46-17.12,13.73-27.4C766.69,620.39,767,610.18,766.14,599.91z M733.44,642.94c-0.83,5.26-2.8,10.05-5.78,14.41
		c-5.03,7.35-14.01,8.22-20.46,2.06c-4.33-4.15-6.27-9.42-7.23-15.19c-2.15-12.94-2.92-25.98-2.49-39.07
		c0.36-10.56,1.01-21.11,3.15-31.49c0.79-3.83,2.27-7.38,4.58-10.56c6.09-8.37,16.21-8.55,22.66-0.44
		c3.09,3.88,4.41,8.45,5.18,13.21c1.85,11.37,2.67,22.82,2.69,35.32C735.58,621.17,735.15,632.1,733.44,642.94z"/>
	<path d="M1502.73,598.43c-0.47-6.7-1.57-13.29-3.67-19.68c-3.46-10.55-9.45-19.1-19.64-24.16c-7.57-3.75-15.71-5.04-24.06-5.09
		c-11.62-0.07-23.23-0.01-34.85-0.01c-0.57,0-1.14,0.07-1.67,0.1c0,2.97-0.03,5.74,0.04,8.51c0.01,0.33,0.5,0.79,0.87,0.96
		c2.15,0.96,3.58,2.56,4.07,4.8c0.43,1.95,0.72,3.98,0.73,5.97c0.04,27.16,0.03,54.33,0.03,81.49c0,1.04-0.03,2.07-0.07,3.11
		c-0.14,3.77-1.3,5.33-4.85,6.66c-0.38,0.14-0.91,0.57-0.92,0.87c-0.07,2.76-0.04,5.53-0.04,8.42c0.79,0,1.38,0,1.98,0
		c11.84,0,23.67,0.05,35.51-0.03c3.37-0.02,6.77-0.18,10.09-0.69c11-1.68,20-6.8,26.4-16.09c5.47-7.95,8-16.96,9.38-26.36
		c0.39-2.62,0.68-5.26,1.01-7.88c0-6.44,0-12.87,0-19.32C1502.94,599.47,1502.77,598.96,1502.73,598.43z M1474.95,620.73
		c-0.4,7.17-1.16,14.33-2.05,21.45c-0.54,4.32-1.84,8.51-3.95,12.38c-1.99,3.66-4.7,6.37-9.13,6.86c-4.36,0.48-7.6-1.42-8.69-5.65
		c-0.64-2.5-0.98-5.16-0.98-7.74c-0.07-29.29-0.04-58.59-0.04-87.88c0-0.53,0.04-1.06,0.07-1.65c7.43-0.57,13.41,1.69,17.48,8.05
		c3.11,4.86,4.62,10.31,5.6,15.9C1475.51,595.12,1475.67,607.92,1474.95,620.73z"/>
	<path d="M1414.3,549.59c-9.77,0-19.34,0-28.99,0c0,2.98,0,5.85,0,8.71c0.26,0.09,0.47,0.16,0.67,0.22
		c0.26,0.07,0.53,0.13,0.79,0.19c4.75,0.93,7.67,3.8,8.54,8.51c0.53,2.88,0.87,5.83,0.88,8.76c0.09,15.17,0.04,30.33,0.04,45.5
		c0,0.59,0,1.18,0,1.77c-0.12,0.05-0.24,0.1-0.36,0.16c-0.32-0.48-0.65-0.96-0.96-1.45c-14.48-23.71-28.96-47.42-43.41-71.15
		c-0.57-0.93-1.16-1.36-2.3-1.35c-9.39,0.05-18.77,0.03-28.15,0.03c-0.52,0-1.04,0.07-1.58,0.11c0,3.01,0,5.84,0,8.7
		c4.52,2.1,7.58,5.8,10.56,9.57c0.52,0.66,0.86,1.64,0.87,2.49c0.07,5.51,0.07,11.02,0.04,16.53c-0.12,19.52-0.19,39.05-0.44,58.57
		c-0.05,4.23-0.64,8.49-2.62,12.37c-2.17,4.25-7.51,4.65-10.29,0.75c-0.9-1.27-1.7-2.7-2.15-4.18c-1.67-5.34-3.32-10.69-4.73-16.1
		c-6.45-24.85-12.82-49.71-19.21-74.56c-1.21-4.72-2.46-9.44-3.68-14.14c-8.42,0-16.69,0-25.12,0c0.77,2.58,1.44,5.03,2.24,7.45
		c0.47,1.41,0.43,2.7,0.02,4.12c-7.09,24.72-14.1,49.46-21.25,74.17c-1.86,6.42-3.98,12.76-6.22,19.06
		c-1.23,3.44-3.4,6.33-6.71,8.17c-0.3,0.16-0.68,0.52-0.68,0.79c-0.05,2.32-0.03,4.64-0.03,6.94c9.94,0,19.63,0,29.51,0
		c0-2.03-0.05-3.98,0.02-5.92c0.04-1-0.27-1.51-1.21-1.98c-4.6-2.24-7.91-7.66-6.98-12.64c1.3-6.93,3.24-13.74,4.9-20.57
		c9,0,17.66,0,26.59,0c1.69,7.42,3.63,14.78,4.98,22.27c0.91,5.02-1.77,9.79-6.35,11.28c-0.31,0.1-0.7,0.56-0.7,0.87
		c-0.06,2.21-0.03,4.43-0.03,6.69c24.32,0,48.46,0,72.68,0c0-2.58,0-5.06,0-7.57c-0.42-0.13-0.77-0.27-1.13-0.36
		c-5.15-1.24-8.5-4.48-9.7-9.54c-0.81-3.41-1.3-6.97-1.33-10.48c-0.12-20.51-0.06-41.03-0.05-61.54c0-0.44,0.07-0.88,0.15-1.64
		c0.44,0.67,0.7,1.03,0.92,1.39c10.26,16.84,20.53,33.68,30.79,50.51c7.94,13.02,15.87,26.05,23.83,39.06
		c0.31,0.51,0.84,1.24,1.3,1.26c2.69,0.12,5.4,0.06,8.23,0.06c0-0.95,0-1.64,0-2.35c0-32.03-0.01-64.05,0.01-96.08
		c0-2.07,0.1-4.15,0.38-6.2c0.56-4.05,2.18-7.31,6.7-8.19c0.3-0.06,0.72-0.56,0.72-0.85C1414.32,555.07,1414.3,552.36,1414.3,549.59
		z M1259.39,618.3c3.45-13.84,6.86-27.58,10.28-41.32c0.1-0.01,0.21-0.03,0.31-0.04c3.26,13.74,6.51,27.48,9.81,41.36
		C1272.92,618.3,1266.28,618.3,1259.39,618.3z"/>
	<path d="M1144.56,473.01c-7.89-1.59-15.78-3.18-23.68-4.78c-18.08-3.66-36.15-7.31-54.22-10.97c-13.81-2.8-27.61-5.62-41.43-8.38
		c-1.06-0.21-1.37-0.64-1.57-1.64c-1.47-7.58-3.03-15.15-4.56-22.73c-5.12-25.33-10.25-50.65-15.37-75.97
		c-1.43-7.06-2.87-14.13-4.31-21.19c-0.1-0.01-0.2-0.01-0.3-0.02c-8.18,40.44-16.35,80.87-24.53,121.3
		c-40.47,8.19-80.8,16.35-121.13,24.52c0.01,0.13,0.02,0.24,0.03,0.37c0.96,0.19,1.92,0.39,2.87,0.58
		c20.2,4.09,40.41,8.18,60.62,12.27c18.66,3.78,37.32,7.57,55.99,11.28c1.31,0.26,1.76,0.83,2,2.02c2.19,11.1,4.4,22.2,6.65,33.29
		c5.44,26.93,10.89,53.86,16.35,80.78c0.37,1.84,0.8,3.67,1.2,5.51c0.5-1.18,0.76-2.3,0.98-3.41c4.33-21.43,8.66-42.87,12.99-64.31
		c3.32-16.48,6.66-32.96,9.95-49.44c0.82-4.09,0.78-4.07,5.05-4.93c19.2-3.86,38.39-7.76,57.59-11.64
		c17.01-3.44,34.03-6.86,51.04-10.3c2.81-0.57,5.61-1.16,8.42-1.75C1144.96,473.13,1144.76,473.05,1144.56,473.01z M870.36,473.26
		c-0.01-0.07-0.03-0.14-0.04-0.21c3.34-0.69,6.68-1.38,10.02-2.06c19.3-3.89,38.59-7.76,57.89-11.64c12.1-2.44,24.19-4.9,36.3-7.29
		c0.63-0.13,1.58,0.08,2.01,0.5c6.67,6.66,13.29,13.39,19.91,20.11c0.1,0.11,0.18,0.25,0.4,0.58
		C954.54,473.26,912.46,473.26,870.36,473.26z M999.16,602.16c-0.07,0.01-0.13,0.02-0.2,0.03c-1.02-5.09-2.04-10.19-3.06-15.28
		c-3.44-17.06-6.88-34.11-10.32-51.16c-2.54-12.58-5.08-25.16-7.57-37.75c-0.11-0.55,0.03-1.38,0.39-1.75
		c6.71-6.93,13.46-13.81,20.2-20.71c0.19,0.14,0.37,0.28,0.56,0.42C999.16,518.01,999.16,560.09,999.16,602.16z M999.43,470.95
		c0-42.35,0-84.46,0-126.57c0.04-0.01,0.08-0.03,0.13-0.04c0.65,3.18,1.31,6.35,1.95,9.53c3.46,17.17,6.92,34.34,10.37,51.51
		c1.45,7.23,2.89,14.45,4.34,21.68c1.44,7.23,2.89,14.45,4.36,21.67c0.12,0.6,0.07,1.01-0.14,1.4c-0.13,0.23-0.32,0.44-0.56,0.69
		c-6.34,6.23-12.65,12.49-18.97,18.75C1000.49,469.96,1000.05,470.36,999.43,470.95z M1120.21,475.26
		c-19.29,3.88-38.59,7.75-57.89,11.63c-12.68,2.55-25.36,5.11-38.05,7.69c-0.28,0.06-0.53,0.08-0.78,0.08
		c-0.12,0-0.24-0.01-0.35-0.03c-0.34-0.05-0.65-0.18-0.96-0.38c-0.1-0.07-0.21-0.15-0.31-0.24c-0.1-0.09-0.21-0.19-0.31-0.29
		c-3.09-3.16-6.19-6.3-9.3-9.44c-3.11-3.14-6.23-6.27-9.33-9.41c-0.37-0.38-0.7-0.79-1.29-1.46c42.36,0,84.29,0,126.22,0
		c0.02,0.07,0.04,0.16,0.06,0.23C1125.35,474.2,1122.78,474.74,1120.21,475.26z"/>
</g>
</svg>
