<?xml version="1.0" encoding="utf-8"?>
<!-- Generator: Adobe Illustrator 23.0.1, SVG Export Plug-In . SVG Version: 6.00 Build 0)  -->
<svg version="1.1" id="Layer_1" xmlns="http://www.w3.org/2000/svg" xmlns:xlink="http://www.w3.org/1999/xlink" x="0px" y="0px"
	 viewBox="0 0 2000 1000" style="enable-background:new 0 0 2000 1000;" xml:space="preserve">
<style type="text/css">
	.st0{fill:#010101;}
</style>
<g>
	<g>
		<path class="st0" d="M1222.32,292.57h-197.61v197.61h197.61V292.57z M1091.25,361.23c0,11.46-9.29,20.79-20.79,20.79
			c-11.51,0-20.81-9.33-20.81-20.79V319.6h12.51v41.63c0,4.59,3.7,8.34,8.3,8.34c4.61,0,8.29-3.75,8.29-8.34V319.6h12.5V361.23z
			 M1085.1,457.14l6.16,18.51h-12.5l-4.24-12.87c-1.31,0.25-2.68,0.36-4.04,0.36c-11.51,0-20.81-9.32-20.81-20.8v-20.79
			c0-11.5,9.31-20.83,20.81-20.83c11.49,0,20.79,9.33,20.79,20.83v20.79C1091.25,448.15,1088.91,453.34,1085.1,457.14
			 M1149.5,382.02h-12.49l-16.64-35.67v35.67h-12.46V319.6h12.46l16.64,35.67V319.6h12.49V382.02z M1149.5,463.14h-41.58v-62.42
			h12.46v49.93h29.12L1149.5,463.14L1149.5,463.14z M1182.81,382.02h-12.49V319.6h12.49V382.02z M1197.35,442.34
			c0,11.48-9.32,20.8-20.79,20.8c-11.51,0-20.84-9.32-20.84-20.8v-20.79c0-11.5,9.33-20.83,20.84-20.83
			c11.46,0,20.79,9.33,20.79,20.83V442.34z M1184.87,442.34v-20.79c0-4.6-3.74-8.3-8.3-8.3c-4.6,0-8.33,3.7-8.33,8.3v20.79
			c0,4.58,3.73,8.31,8.33,8.31C1181.13,450.65,1184.87,446.92,1184.87,442.34 M1078.75,442.34v-20.79c0-4.6-3.68-8.3-8.29-8.3
			c-4.6,0-8.3,3.7-8.3,8.3v20.79c0,4.58,3.7,8.31,8.3,8.31C1075.08,450.65,1078.75,446.92,1078.75,442.34 M777.69,490.18H975.3
			V292.57H777.69V490.18z M862.97,379.91h-56.15v-12.46h31.19v-35.38h-24.98v-12.48h37.48v47.86h12.46V379.91z M939.92,332.07
			h-43.68v-12.48h43.68V332.07z M890.02,402.79h56.11v60.35h-56.11V402.79z M890.02,367.46h56.11v12.45h-56.11V367.46z
			 M800.57,463.14l2.5-12.49h37.53l7.34-35.36h-25.04L819.12,433h-12.45l6.36-30.2h49.94l-12.46,60.35L800.57,463.14L800.57,463.14z
			 M902.48,450.65h31.18v-35.36h-31.18V450.65z"/>
		<path class="st0" d="M601.36,656.36v32.56h-17.53v-4.47c-2.06,3.85-7.52,5.55-21.65,5.55c-18.97,0-22.19-4.47-22.19-15.38v-1.25
			c0-10.92,3.22-15.39,22.19-15.39c12.79,0,18.43,1.34,20.93,4.47v-4.65c0-7.24-1.52-8.85-12.34-8.85c-7.07,0-10.56,0.72-11.99,4.65
			h-17.09c1.43-11,7.52-14.14,29.34-14.14C597.51,639.45,601.36,644.64,601.36,656.36 M583.11,674.34v-0.71
			c0-4.65-1.52-5.82-12.44-5.82s-12.44,1.17-12.44,5.82v0.71c0,4.65,1.52,5.81,12.44,5.81S583.11,678.99,583.11,674.34"/>
	</g>
	<rect x="615.33" y="622.63" class="st0" width="18.25" height="66.29"/>
	<g>
		<path class="st0" d="M664.72,667.72v1.25c0,10.02,1.25,11.54,12.26,11.54c8.77,0,11.36-0.9,12.08-6.36h18.16
			c-1.43,11.72-7.16,15.83-30.24,15.83c-26.93,0-30.68-6.35-30.68-21.65v-7.24c0-15.3,3.75-21.66,30.68-21.66
			s30.68,6.89,30.68,21.83v6.44L664.72,667.72L664.72,667.72z M664.72,659.13h24.51c-0.09-8.77-1.7-10.2-12.26-10.2
			C666.5,648.93,664.9,650.27,664.72,659.13"/>
	</g>
	<polygon class="st0" points="757.5,688.92 744.71,672.1 731.02,688.92 711.07,688.92 732.63,664.05 712.77,640.53 734.06,640.53 
		745.24,655.19 757.14,640.53 777.09,640.53 757.23,663.34 778.79,688.92 	"/>
	<g>
		<path class="st0" d="M845.09,656.36v32.56h-17.53v-4.47c-2.06,3.85-7.52,5.55-21.65,5.55c-18.97,0-22.19-4.47-22.19-15.38v-1.25
			c0-10.92,3.22-15.39,22.19-15.39c12.79,0,18.43,1.34,20.93,4.47v-4.65c0-7.24-1.52-8.85-12.34-8.85c-7.07,0-10.56,0.72-11.99,4.65
			h-17.09c1.43-11,7.52-14.14,29.34-14.14C841.24,639.45,845.09,644.64,845.09,656.36 M826.84,674.34v-0.71
			c0-4.65-1.52-5.82-12.44-5.82c-10.92,0-12.44,1.17-12.44,5.82v0.71c0,4.65,1.52,5.81,12.44,5.81
			C825.32,680.15,826.84,678.99,826.84,674.34"/>
		<path class="st0" d="M922.03,656.27v32.65h-18.25v-26.47c0-9.21-2.14-10.64-11.81-10.64c-10.56,0-14.85,1.25-14.85,11.36v25.76
			h-18.25v-48.39h17.53v6.8c2.86-5.46,8.85-7.88,20.93-7.88C917.47,639.44,922.03,646.16,922.03,656.27"/>
		<path class="st0" d="M999.17,622.63v66.29h-17.53v-6.44c-3.04,5.28-9.31,7.51-21.65,7.51c-19.95,0-25.58-6.62-25.58-22.54V662
			c0-15.92,5.64-22.55,25.58-22.55c11.45,0,17.71,1.97,20.93,6.36v-23.17L999.17,622.63L999.17,622.63z M980.91,668.08v-6.71
			c0-8.49-2.59-9.57-14.05-9.57c-11.45,0-14.05,1.07-14.05,9.57v6.71c0,8.51,2.6,9.57,14.05,9.57
			C978.32,677.65,980.91,676.58,980.91,668.08"/>
		<path class="st0" d="M1029.59,667.72v1.25c0,10.02,1.25,11.54,12.26,11.54c8.77,0,11.36-0.9,12.08-6.36h18.16
			c-1.43,11.72-7.16,15.83-30.24,15.83c-26.93,0-30.68-6.35-30.68-21.65v-7.24c0-15.3,3.75-21.66,30.68-21.66
			c26.93,0,30.68,6.89,30.68,21.83v6.44L1029.59,667.72L1029.59,667.72z M1029.59,659.13h24.51c-0.09-8.77-1.7-10.2-12.26-10.2
			C1031.38,648.93,1029.78,650.27,1029.59,659.13"/>
		<path class="st0" d="M1137.69,655.11v4.38h-16.46c-0.35-6.62-2.32-7.7-8.23-7.7c-6.62,0-10.11,1.25-10.11,11.36v25.76h-18.25
			v-48.39h17.53v8.05c2.42-6.26,7.6-8.95,17.8-8.95C1134.46,639.63,1137.69,645.71,1137.69,655.11"/>
	</g>
	<polygon class="st0" points="1244.7,640.53 1227.34,688.92 1203.37,688.92 1193.53,657.61 1183.59,688.92 1159.71,688.92 
		1142.35,640.53 1161.5,640.53 1172.86,678.54 1184.85,640.53 1203.01,640.53 1215,678.54 1226.36,640.53 	"/>
	<g>
		<path class="st0" d="M1308.98,656.36v32.56h-17.53v-4.47c-2.06,3.85-7.51,5.55-21.65,5.55c-18.97,0-22.19-4.47-22.19-15.38v-1.25
			c0-10.92,3.22-15.39,22.19-15.39c12.79,0,18.43,1.34,20.93,4.47v-4.65c0-7.24-1.52-8.85-12.34-8.85c-7.07,0-10.56,0.72-11.99,4.65
			h-17.09c1.44-11,7.52-14.14,29.34-14.14C1305.13,639.45,1308.98,644.64,1308.98,656.36 M1290.73,674.34v-0.71
			c0-4.65-1.52-5.82-12.44-5.82s-12.44,1.17-12.44,5.82v0.71c0,4.65,1.52,5.81,12.44,5.81
			C1289.2,680.15,1290.73,678.99,1290.73,674.34"/>
		<path class="st0" d="M1384.49,656.27v32.65h-18.25v-26.47c0-9.21-2.14-10.64-11.81-10.64c-10.56,0-14.85,1.25-14.85,11.36v25.76
			h-18.25v-48.39h17.53v6.8c2.86-5.46,8.85-7.88,20.93-7.88C1379.93,639.44,1384.49,646.16,1384.49,656.27"/>
		<path class="st0" d="M1460.01,640.53v47.95c0,13.42-5.1,18.97-32.39,18.97c-22.18,0-28.72-2.24-30.15-13.59h17.45
			c1.34,3.4,4.92,3.93,13.33,3.93c11.99,0,13.51-1.7,13.51-10.46v-4.65c-3.21,4.38-9.48,6.35-20.93,6.35
			c-19.95,0-25.58-6.62-25.58-22.54V662c0-15.92,5.63-22.55,25.58-22.55c12.34,0,18.61,2.24,21.65,7.52v-6.44L1460.01,640.53
			L1460.01,640.53z M1441.76,667.09v-5.73c0-8.49-2.59-9.57-14.05-9.57c-11.46,0-14.05,1.07-14.05,9.57v6.71
			c0,8.5,2.59,8.59,14.05,8.59C1439.17,676.66,1441.76,675.59,1441.76,667.09"/>
	</g>
</g>
</svg>
